<svg version="1.1" id="Layer_1" xmlns="http://www.w3.org/2000/svg" xmlns:xlink="http://www.w3.org/1999/xlink" x="0px" y="0px"
	 width="100%" viewBox="0 0 1920 1080" enable-background="new 0 0 1920 1080" xml:space="preserve">
<path fill="#000000" opacity="1.000000" stroke="none" 
	d="
M1295.000000,1081.000000 
	C863.333435,1081.000000 432.166809,1081.000000 1.000174,1081.000000 
	C1.000116,721.000122 1.000116,361.000275 1.000058,1.000212 
	C2.166525,1.000000 3.333050,1.000000 4.499575,1.000000 
	C643.332825,1.000000 1282.166016,1.000000 1920.999512,1.000000 
	C1920.999634,360.999664 1920.999634,720.999329 1920.999756,1080.999512 
	C1712.500000,1081.000000 1504.000000,1081.000000 1295.000000,1081.000000 
M625.717102,648.276978 
	C616.204956,648.276978 606.692871,648.276978 597.217773,648.276978 
	C597.217773,663.786743 597.217773,679.226135 597.217773,694.781494 
	C599.493591,694.781494 601.557129,694.781494 603.987061,694.781494 
	C603.987061,688.135620 603.987061,681.710754 603.987061,674.850464 
	C610.423096,674.850464 616.502686,674.850464 622.769165,674.850464 
	C622.769165,672.300720 622.769165,670.199463 622.769165,667.752441 
	C616.509644,667.752441 610.400757,667.752441 604.305908,667.752441 
	C604.305908,663.163025 604.305908,658.927246 604.305908,654.584106 
	C610.298828,654.584106 615.969788,654.773438 621.612122,654.454956 
	C623.078796,654.372131 624.455872,652.703369 626.142761,652.798645 
	C630.951355,653.408508 635.759888,654.018433 640.881348,654.667969 
	C640.881348,667.936035 640.881348,681.374329 640.881348,694.944458 
	C643.262817,694.944458 645.345642,694.944458 647.748047,694.944458 
	C647.748047,681.282959 647.748047,667.873657 647.748047,653.960693 
	C652.621094,653.960693 657.193420,653.960693 661.664490,653.960693 
	C661.664490,651.555786 661.664490,649.663879 661.664490,647.477051 
	C650.381897,647.477051 639.418701,647.440247 628.456848,647.547791 
	C627.592468,647.556274 626.737915,648.567871 625.717102,648.276978 
M905.386353,647.847351 
	C905.316589,648.227478 905.246826,648.607666 905.029358,649.916321 
	C905.029358,664.831177 905.029358,679.746094 905.029358,694.792969 
	C914.879883,694.792969 924.276794,694.792969 933.757446,694.792969 
	C933.757446,692.512817 933.757446,690.454224 933.757446,688.000977 
	C926.450989,688.000977 919.381897,688.000977 912.328125,688.000977 
	C912.328125,683.380249 912.328125,679.170532 912.328125,674.531250 
	C919.549988,674.531250 926.443176,674.531250 933.333740,674.531250 
	C933.333740,672.153442 933.333740,670.216187 933.333740,667.836182 
	C926.200623,667.836182 919.301453,667.836182 912.288147,667.836182 
	C912.288147,663.156494 912.288147,658.927368 912.288147,654.237549 
	C919.371521,654.237549 926.172852,654.237549 933.458923,654.481628 
	C933.574585,653.994263 933.690247,653.506897 933.954346,652.224670 
	C933.962280,651.147217 933.970154,650.069763 934.712158,649.131042 
	C940.837280,664.378235 946.962341,679.625366 953.054565,694.790649 
	C958.271545,695.320312 958.265198,695.317749 960.055176,690.887573 
	C961.981812,686.119019 963.946472,681.365662 965.851135,676.588257 
	C969.637817,667.090576 973.394775,657.580994 977.155273,648.098450 
	C971.784912,646.413086 968.910278,647.962646 967.685181,653.148010 
	C966.931519,656.338501 965.269104,659.313721 964.020386,662.387878 
	C961.428162,668.769592 958.839661,675.152771 955.758057,682.746887 
	C951.789734,672.760437 948.316956,664.038940 944.858276,655.311951 
	C941.669250,647.265381 941.675964,647.262695 932.061890,647.648010 
	C923.374756,647.730652 914.687561,647.813293 905.386353,647.847351 
M73.002029,625.974670 
	C68.500015,639.716980 63.976070,653.452148 59.503613,667.204102 
	C56.444801,676.609253 58.850136,679.871277 68.775276,679.870850 
	C159.401062,679.867065 250.026855,679.859375 340.652649,679.851868 
	C348.076538,679.851196 352.547577,676.795532 354.935211,669.824768 
	C358.161041,660.406921 361.243317,650.939880 364.405518,641.500122 
	C376.429840,605.605286 388.517578,569.731567 400.474823,533.814392 
	C412.482697,497.745239 424.348724,461.628876 436.308868,425.543823 
	C439.702942,415.303650 443.265533,405.119263 446.641602,394.873322 
	C448.543579,389.101013 446.365875,384.524994 441.305115,384.269989 
	C431.408539,383.771362 421.490234,383.567200 411.579620,383.520721 
	C400.452698,383.468536 389.324280,383.725403 378.258148,383.126221 
	C382.707794,369.710266 387.115417,356.280151 391.620850,342.882935 
	C395.024567,332.761658 392.615448,329.324036 381.889526,329.321716 
	C339.084442,329.312500 296.279358,329.313080 253.474274,329.313446 
	C206.505280,329.313843 159.536255,329.301788 112.567276,329.333649 
	C102.643555,329.340393 98.948021,332.008789 95.908829,341.059418 
	C91.994568,352.715973 88.091721,364.376404 84.200203,376.040619 
	C57.789158,455.203522 31.377317,534.366150 4.981995,613.534302 
	C2.291566,621.603821 4.875187,625.118225 13.431226,625.135986 
	C33.250999,625.177063 53.070816,625.197021 73.002029,625.974670 
M1150.424072,627.080933 
	C1177.173096,631.901123 1202.873657,628.535522 1227.041382,616.136719 
	C1276.230469,590.901184 1301.827148,537.077454 1291.008545,482.539612 
	C1277.744141,415.672272 1210.038086,372.644836 1143.931396,389.071594 
	C1080.331421,404.875519 1039.670410,470.101074 1055.083252,533.728577 
	C1067.208984,583.786011 1099.046875,615.184021 1150.424072,627.080933 
M1012.509705,580.985413 
	C1000.324341,566.478638 988.138977,551.971863 975.687683,537.148499 
	C977.433960,536.661255 978.691956,536.274963 979.967468,535.959717 
	C992.580200,532.842834 1004.198730,527.711182 1013.769958,518.710693 
	C1035.851562,497.945587 1042.882812,465.341675 1031.734985,435.975281 
	C1020.975525,407.631866 995.528748,389.573761 964.398621,389.088470 
	C934.746887,388.626221 905.083984,388.883850 875.425964,388.846802 
	C874.670105,388.845856 873.914001,389.099792 873.285034,389.212158 
	C873.285034,468.308228 873.285034,547.056702 873.285034,625.917236 
	C884.580322,625.917236 895.634399,625.917236 907.137329,625.917236 
	C907.137329,558.265015 907.137329,490.876709 907.137329,423.941406 
	C927.538086,423.941406 947.534607,423.074585 967.415466,424.217590 
	C983.125122,425.120789 994.454407,434.315247 999.781799,449.306458 
	C1005.369934,465.031433 1003.171326,479.918671 991.794617,492.625061 
	C983.124634,502.308319 971.531494,505.582947 958.973511,505.769135 
	C945.996460,505.961487 933.014343,505.811920 919.613831,505.811920 
	C919.613831,510.303253 919.362488,514.464417 919.717468,518.573120 
	C919.901184,520.699219 920.673584,523.133301 922.004883,524.748413 
	C949.221802,557.768677 976.550720,590.696594 1003.903931,623.604248 
	C1004.786255,624.665771 1006.150696,626.039734 1007.305054,626.053589 
	C1021.369446,626.222290 1035.436646,626.163147 1050.411621,626.163147 
	C1037.494995,610.776672 1025.223999,596.159180 1012.509705,580.985413 
M700.319153,587.884949 
	C704.179260,578.713501 708.265076,569.627441 711.783325,560.326660 
	C713.106812,556.827698 714.932068,556.079834 718.350037,556.100708 
	C741.338074,556.241028 764.327393,556.174377 787.316284,556.174866 
	C798.734802,556.175110 798.709900,556.185364 802.982300,566.673035 
	C811.047668,586.471191 819.144653,606.256470 827.151489,625.858643 
	C839.390930,625.858643 851.268860,625.858643 863.511475,625.858643 
	C863.001831,624.385742 862.671326,623.298401 862.254639,622.245178 
	C833.208801,548.835388 804.160278,475.426575 775.094727,402.024567 
	C772.960754,396.635406 772.110474,389.133789 768.111938,386.524994 
	C763.860840,383.751343 756.569946,385.634491 750.606201,385.490997 
	C749.773743,385.470978 748.917297,385.616425 748.111450,385.469055 
	C744.500427,384.808624 743.020996,386.583893 741.738953,389.829865 
	C713.591675,461.094482 685.318054,532.309204 657.082764,603.539124 
	C654.165833,610.897705 651.337708,618.291565 648.273438,626.170349 
	C660.276672,626.170349 671.586731,626.269897 682.889038,626.021545 
	C684.064392,625.995728 685.695007,624.113586 686.266296,622.739990 
	C690.978210,611.410767 695.489807,599.998352 700.319153,587.884949 
M1496.192383,392.601562 
	C1495.547485,391.402039 1494.923462,389.170715 1494.254517,389.157166 
	C1483.488037,388.938934 1472.715698,389.003052 1461.806396,389.003052 
	C1461.806396,391.615509 1461.806152,393.606934 1461.806274,395.598389 
	C1461.809082,447.762115 1461.717896,499.926147 1461.872803,552.089417 
	C1461.918579,567.468079 1455.249756,578.646301 1441.997437,585.843811 
	C1422.869751,596.232422 1402.894775,596.922546 1382.716675,589.424316 
	C1367.979736,583.947937 1355.027222,573.248413 1355.367310,549.459839 
	C1356.103394,497.973236 1355.595459,446.468842 1355.596313,394.971741 
	C1355.596313,393.045380 1355.596313,391.119019 1355.596313,389.298889 
	C1343.645630,389.298889 1332.391479,389.298889 1321.061646,389.298889 
	C1321.019043,390.246460 1320.964111,390.896912 1320.964233,391.547394 
	C1320.972656,446.543976 1320.841064,501.541199 1321.068848,556.536865 
	C1321.160522,578.653137 1330.638062,596.584106 1348.471680,609.417969 
	C1376.463013,629.561829 1407.653198,633.641296 1440.119629,623.611877 
	C1472.669800,613.556580 1497.456421,589.481201 1496.482910,548.565552 
	C1495.254517,496.931091 1496.190918,445.245087 1496.192383,392.601562 
M509.263580,489.499847 
	C509.263580,534.942261 509.263580,580.384644 509.263580,625.796875 
	C521.032776,625.796875 532.245239,625.796875 543.848145,625.796875 
	C543.848145,592.000122 543.848145,558.591614 543.848145,524.674133 
	C575.632263,524.674133 607.020203,524.674133 638.499878,524.674133 
	C638.499878,512.905823 638.499878,501.651794 638.499878,489.961670 
	C606.830017,489.961670 575.414673,489.961670 544.122925,489.961670 
	C544.122925,467.489655 544.122925,445.458130 544.122925,422.942139 
	C579.904297,422.942139 615.292114,422.942139 650.602661,422.942139 
	C650.602661,411.375275 650.602661,400.301392 650.602661,389.299683 
	C603.393188,389.299683 556.489990,389.299683 509.263580,389.299683 
	C509.263580,422.568909 509.263580,455.534363 509.263580,489.499847 
M1667.025391,585.469116 
	C1645.056763,559.214050 1623.088135,532.959045 1601.148438,506.738678 
	C1631.383545,467.436829 1661.315796,428.528656 1691.727539,388.997375 
	C1677.478760,388.997375 1664.331543,388.883148 1651.191406,389.138580 
	C1649.503906,389.171387 1647.375000,390.762695 1646.256348,392.241577 
	C1620.667725,426.067627 1595.185791,459.974518 1569.697510,493.876495 
	C1563.941406,501.532715 1564.244873,514.375244 1570.244873,521.647217 
	C1595.982178,552.840698 1622.002563,583.808655 1647.225708,615.412781 
	C1653.630371,623.437622 1659.884766,627.521912 1670.374634,626.399780 
	C1680.155151,625.353577 1690.135620,626.176270 1701.094727,626.176270 
	C1689.391113,612.183411 1678.441895,599.092590 1667.025391,585.469116 
M1525.521973,489.499695 
	C1525.521973,534.916809 1525.521973,580.333923 1525.521973,625.861267 
	C1537.032715,625.861267 1548.082275,625.861267 1559.112793,625.861267 
	C1559.112793,546.828186 1559.112793,468.114807 1559.112793,389.288452 
	C1547.829102,389.288452 1536.759888,389.288452 1525.521973,389.288452 
	C1525.521973,422.550476 1525.521973,455.525085 1525.521973,489.499695 
M686.932007,686.500732 
	C688.429749,682.397461 689.927429,678.294128 691.900208,672.889282 
	C695.031311,681.255005 697.655457,688.266235 700.160461,694.959167 
	C703.729858,695.801270 705.485901,695.084839 706.412415,691.608398 
	C708.031250,685.533752 710.327637,679.640259 712.325195,673.665833 
	C715.183594,665.117126 718.028687,656.563965 720.857727,648.077759 
	C715.207764,646.314758 713.093384,648.565491 711.701782,653.464966 
	C709.143250,662.472534 705.824768,671.264343 702.424072,681.326477 
	C700.114014,674.860352 697.932678,669.666626 696.442078,664.281738 
	C695.331238,660.269043 693.447205,658.632935 689.057617,660.078613 
	C686.663757,666.752136 684.171448,673.699951 681.387146,681.461975 
	C678.080200,671.534546 674.700317,662.523254 672.149780,653.283081 
	C670.738037,648.168335 668.415527,646.362793 663.064026,648.103882 
	C667.880615,662.531921 672.815552,676.919556 677.425354,691.410583 
	C678.530151,694.883789 680.177979,696.025330 683.814514,694.881958 
	C684.710999,692.487915 685.693665,689.863647 686.932007,686.500732 
M1135.774292,664.503052 
	C1135.774292,674.593262 1135.774292,684.683472 1135.774292,694.711182 
	C1138.360107,694.711182 1140.437012,694.711182 1142.985840,694.711182 
	C1142.985840,684.080017 1142.985840,673.749939 1142.985840,662.237549 
	C1146.897827,668.064880 1150.053223,672.880920 1153.332031,677.611328 
	C1155.813354,681.191284 1158.115845,681.192444 1160.606201,677.606567 
	C1163.938110,672.808960 1167.142334,667.922607 1171.251221,661.809814 
	C1171.251221,673.810120 1171.251221,684.210754 1171.251221,694.765991 
	C1173.684082,694.765991 1175.738647,694.765991 1177.831177,694.765991 
	C1177.831177,678.951111 1177.831177,663.388855 1177.831177,646.494873 
	C1165.818359,650.499878 1164.810303,663.429382 1156.543457,669.792603 
	C1152.258667,663.475708 1147.824219,657.272888 1143.775391,650.827698 
	C1141.759521,647.618530 1139.475464,646.647095 1135.777832,648.053467 
	C1135.777832,653.227722 1135.777832,658.366821 1135.774292,664.503052 
M1232.803833,674.752869 
	C1236.576294,680.237976 1240.500977,685.626587 1244.062134,691.245544 
	C1246.090454,694.445862 1248.323242,696.083313 1251.957520,694.615112 
	C1251.957520,678.895630 1251.957520,663.306702 1251.957520,647.407898 
	C1249.541992,647.514954 1247.486816,647.605957 1245.016602,647.715393 
	C1245.016602,658.538208 1245.016602,668.729614 1245.016602,680.184448 
	C1237.786133,669.708740 1231.207642,660.373596 1224.870850,650.877197 
	C1222.965088,648.021240 1220.910156,646.580505 1217.309814,647.756653 
	C1217.309814,663.417603 1217.309814,679.139709 1217.309814,694.700439 
	C1219.681152,694.700439 1221.749634,694.700439 1224.199585,694.700439 
	C1224.199585,684.037476 1224.199585,673.686707 1224.199585,662.403931 
	C1227.298584,666.876892 1229.829224,670.529663 1232.803833,674.752869 
M765.604919,650.971802 
	C765.604919,665.574280 765.604919,680.176697 765.604919,694.873718 
	C768.137207,694.873718 770.109192,694.873718 772.605347,694.873718 
	C772.605347,681.486755 772.605347,668.241638 772.605347,654.597900 
	C774.253235,654.597900 775.380432,654.585022 776.507263,654.600586 
	C778.839539,654.632874 781.180786,654.563904 783.501953,654.745239 
	C788.523926,655.137512 791.301880,658.005005 791.337341,662.643677 
	C791.372375,667.225952 788.571655,670.344299 783.651917,670.794128 
	C780.866211,671.048889 778.038025,670.840088 774.043823,670.840088 
	C775.228882,673.260559 775.773376,675.076233 776.861328,676.466553 
	C780.555481,681.187378 784.806091,685.511353 788.150269,690.456177 
	C791.395630,695.255005 795.391968,695.763367 800.718201,694.525269 
	C795.872070,688.679688 791.267639,683.125549 786.535889,677.417908 
	C787.521545,677.038452 787.990540,676.874512 788.446411,676.679932 
	C796.004272,673.453674 799.250977,667.915527 798.155823,660.125427 
	C797.147156,652.950256 792.122009,648.282471 784.139832,647.693359 
	C778.833801,647.301758 773.480225,647.378418 768.158081,647.553467 
	C767.281067,647.582397 766.456238,649.199036 765.604919,650.971802 
M574.341675,647.961609 
	C564.105042,645.075500 553.632385,648.922302 547.734741,657.734924 
	C541.983704,666.328430 542.396423,677.916687 548.747253,686.158875 
	C555.136719,694.451233 565.542053,697.601196 575.472229,694.249329 
	C584.801819,691.100220 591.546021,682.245605 591.963867,672.597351 
	C592.443237,661.528442 586.444458,652.800598 574.341675,647.961609 
M898.428467,661.224609 
	C895.439758,654.079773 890.068115,649.222717 882.557190,648.291687 
	C875.238586,647.384644 867.719604,648.094666 860.392456,648.094666 
	C860.392456,663.739441 860.392456,679.297852 860.392456,695.014648 
	C866.047852,695.014648 871.366394,695.054932 876.684204,695.007263 
	C894.561035,694.847046 904.310547,680.233948 898.428467,661.224609 
M1069.425415,695.687012 
	C1070.413208,695.547974 1071.402344,695.417480 1072.388672,695.268555 
	C1084.557495,693.430298 1093.254272,683.294983 1093.143066,671.084473 
	C1093.034668,659.175476 1084.118164,648.804504 1072.529541,647.108276 
	C1060.656372,645.370300 1049.415527,652.846985 1045.847656,664.672485 
	C1041.656494,678.563965 1051.554932,695.113953 1069.425415,695.687012 
M979.456848,666.500488 
	C979.456848,675.930908 979.456848,685.361267 979.456848,694.725586 
	C989.506165,694.725586 998.921326,694.725586 1008.290527,694.725586 
	C1008.290527,692.354065 1008.290527,690.305054 1008.290527,687.808472 
	C1000.848511,687.808472 993.775269,687.808472 986.950684,687.808472 
	C986.950684,683.270508 986.950684,679.194092 986.950684,674.799194 
	C994.045410,674.799194 1000.815308,674.799194 1007.795288,674.799194 
	C1007.795288,672.358582 1007.795288,670.259094 1007.795288,667.688049 
	C1000.820862,667.688049 993.926758,667.688049 986.903015,667.688049 
	C986.903015,663.141235 986.903015,659.066895 986.903015,654.413330 
	C994.214783,654.413330 1001.260437,654.413330 1008.293640,654.413330 
	C1008.293640,651.890625 1008.293640,649.954285 1008.293640,647.843628 
	C998.640198,647.843628 989.247009,647.843628 979.456909,647.843628 
	C979.456909,653.918213 979.456909,659.709534 979.456848,666.500488 
M823.334839,647.565186 
	C816.375183,647.565186 809.415588,647.565186 802.493530,647.565186 
	C802.493530,663.704895 802.493530,679.268250 802.493530,694.702576 
	C812.236633,694.702576 821.636047,694.702576 830.898254,694.702576 
	C830.898254,692.317627 830.898254,690.258850 830.898254,687.958252 
	C823.559204,687.958252 816.583740,687.958252 809.417114,687.958252 
	C809.417114,683.590393 809.417114,679.471436 809.417114,674.782104 
	C816.505920,674.782104 823.590515,674.782104 830.531982,674.782104 
	C830.531982,672.143188 830.531982,670.079712 830.531982,667.523926 
	C823.294800,667.523926 816.390198,667.523926 809.410889,667.523926 
	C809.410889,663.064331 809.410889,659.118896 809.410889,654.648621 
	C816.644348,654.648621 823.719055,654.648621 830.922729,654.648621 
	C830.922729,652.039307 830.922729,649.957825 830.922729,647.567200 
	C828.547607,647.567200 826.412964,647.567200 823.334839,647.565186 
M1202.443604,654.591064 
	C1205.887939,654.591064 1209.332153,654.591064 1212.933838,654.591064 
	C1212.933838,652.054688 1212.933838,649.973999 1212.933838,647.856018 
	C1203.263428,647.856018 1193.849609,647.856018 1184.481934,647.856018 
	C1184.481934,663.710632 1184.481934,679.273010 1184.481934,694.719482 
	C1194.208252,694.719482 1203.606567,694.719482 1212.926758,694.719482 
	C1212.926758,692.339844 1212.926758,690.267944 1212.926758,687.769958 
	C1205.524048,687.769958 1198.462402,687.769958 1191.343018,687.769958 
	C1191.343018,683.353210 1191.343018,679.369873 1191.343018,674.802490 
	C1198.519409,674.802490 1205.595825,674.802490 1212.541992,674.802490 
	C1212.541992,672.148438 1212.541992,670.084595 1212.541992,667.522766 
	C1205.317871,667.522766 1198.416626,667.522766 1191.419434,667.522766 
	C1191.419434,663.062805 1191.419434,659.121277 1191.419434,654.591431 
	C1194.882080,654.591431 1198.169312,654.591431 1202.443604,654.591064 
M534.551208,670.814209 
	C532.698853,670.110657 530.897583,669.176208 528.983276,668.752869 
	C525.254883,667.928162 521.362854,667.714111 517.740173,666.594849 
	C515.948730,666.041382 513.642456,664.238281 513.309937,662.638611 
	C512.920593,660.765503 513.842712,657.931213 515.222473,656.511292 
	C518.987122,652.637085 527.479309,652.835999 530.516174,657.136597 
	C533.088806,660.779907 535.666748,659.968201 538.789124,659.365295 
	C538.090454,650.029785 526.514221,644.173279 515.407227,648.440125 
	C508.692108,651.019714 505.217407,656.492676 506.001953,663.138611 
	C506.694977,669.009399 510.827972,672.777405 517.942078,673.957886 
	C521.220032,674.501770 524.693604,674.480408 527.734680,675.627197 
	C529.840088,676.421265 532.805664,678.793335 532.784241,680.426025 
	C532.755127,682.642273 530.731140,685.662292 528.693909,686.861450 
	C523.308960,690.031250 515.175842,689.115906 511.851562,681.336182 
	C509.843567,681.336182 507.894348,681.336182 504.058624,681.336182 
	C506.668335,685.347839 508.104431,688.914062 510.670227,691.227295 
	C516.710571,696.673096 526.944580,696.766296 533.945862,692.123535 
	C541.856689,686.877625 542.431641,677.418640 534.551208,670.814209 
M1103.707153,647.441162 
	C1101.924438,647.441162 1100.141724,647.441162 1098.339966,647.441162 
	C1098.339966,663.598877 1098.339966,679.158203 1098.339966,694.765747 
	C1100.677368,694.765747 1102.745850,694.765747 1105.281494,694.765747 
	C1105.281494,689.484436 1105.281494,684.442810 1105.281494,679.047180 
	C1109.569336,679.047180 1113.397461,679.260864 1117.193604,679.002930 
	C1125.187012,678.459839 1130.676025,672.390015 1130.959839,664.100952 
	C1131.255127,655.469971 1126.205322,648.857544 1118.092407,647.880676 
	C1113.659302,647.346924 1109.135620,647.563843 1103.707153,647.441162 
M754.218689,671.161560 
	C751.443848,664.049744 748.782837,656.889343 745.790405,649.870300 
	C745.245056,648.591187 743.339050,647.123535 742.075134,647.136230 
	C740.821228,647.148804 738.982239,648.666687 738.437622,649.960938 
	C734.576050,659.138245 730.961975,668.420227 727.308594,677.684326 
	C725.093262,683.301880 722.948425,688.947266 720.652161,694.890015 
	C723.435608,694.890015 725.581970,694.890015 727.967346,694.890015 
	C729.476440,691.269409 730.930664,687.575073 732.572388,683.966064 
	C733.068848,682.874695 734.044556,681.227905 734.869263,681.186035 
	C739.851868,680.932922 745.140381,680.117737 749.726257,681.492859 
	C751.927673,682.152893 752.817566,687.198486 754.293579,690.261658 
	C755.061096,691.854553 755.811646,693.455627 756.454651,694.810303 
	C759.005249,694.810303 761.123840,694.810303 763.629944,694.810303 
	C760.541321,686.946594 757.573425,679.390320 754.218689,671.161560 
M1278.474243,647.439941 
	C1271.029419,647.439941 1263.584473,647.439941 1255.870605,647.439941 
	C1255.870605,649.735046 1255.870605,651.643372 1255.870605,654.011597 
	C1260.554932,654.011597 1265.120361,654.011597 1269.924072,654.011597 
	C1269.924072,667.891907 1269.924072,681.322510 1269.924072,694.862549 
	C1272.401855,694.862549 1274.608887,694.862549 1277.134277,694.862549 
	C1277.134277,681.100891 1277.134277,667.691956 1277.134277,653.989014 
	C1281.886597,653.989014 1286.322021,653.989014 1290.795776,653.989014 
	C1290.795776,651.610718 1290.795776,649.550598 1290.795776,647.440369 
	C1286.777100,647.440369 1283.118652,647.440369 1278.474243,647.439941 
M1027.539429,688.065430 
	C1025.095825,688.065430 1022.652161,688.065430 1019.769653,688.065430 
	C1019.769653,674.385376 1019.769653,661.182190 1019.769653,647.917908 
	C1017.242798,647.917908 1015.177551,647.917908 1013.263550,647.917908 
	C1013.263550,663.781372 1013.263550,679.325378 1013.263550,694.744263 
	C1023.033875,694.744263 1032.450195,694.744263 1041.755615,694.744263 
	C1041.755615,692.404297 1041.755615,690.347046 1041.755615,688.065613 
	C1037.131836,688.065613 1032.827515,688.065613 1027.539429,688.065430 
z"/>
<path fill="#0558EC" opacity="1.000000" stroke="none" 
	d="
M378.196533,383.847839 
	C389.324280,383.725403 400.452698,383.468536 411.579620,383.520721 
	C421.490234,383.567200 431.408539,383.771362 441.305115,384.269989 
	C446.365875,384.524994 448.543579,389.101013 446.641602,394.873322 
	C443.265533,405.119263 439.702942,415.303650 436.308868,425.543823 
	C424.348724,461.628876 412.482697,497.745239 400.474823,533.814392 
	C388.517578,569.731567 376.429840,605.605286 364.405518,641.500122 
	C361.243317,650.939880 358.161041,660.406921 354.935211,669.824768 
	C352.547577,676.795532 348.076538,679.851196 340.652649,679.851868 
	C250.026855,679.859375 159.401062,679.867065 68.775276,679.870850 
	C58.850136,679.871277 56.444801,676.609253 59.503613,667.204102 
	C63.976070,653.452148 68.500015,639.716980 73.238937,625.518799 
	C73.672997,625.014099 73.870132,624.965271 74.527222,624.969727 
	C145.127701,625.034302 215.268204,625.047852 285.408722,625.054382 
	C294.626251,625.055237 298.255035,622.481445 301.202423,613.708374 
	C308.033936,593.374207 314.839569,573.031250 321.615387,552.678467 
	C340.313995,496.512573 358.991882,440.339813 377.813232,384.098389 
	C377.948517,384.026947 378.196533,383.847839 378.196533,383.847839 
z"/>
<path fill="#1AB9B7" opacity="1.000000" stroke="none" 
	d="
M74.067261,624.916504 
	C73.870132,624.965271 73.672997,625.014099 73.183235,625.144226 
	C53.070816,625.197021 33.250999,625.177063 13.431226,625.135986 
	C4.875187,625.118225 2.291566,621.603821 4.981995,613.534302 
	C31.377317,534.366150 57.789158,455.203522 84.200203,376.040619 
	C88.091721,364.376404 91.994568,352.715973 95.908829,341.059418 
	C98.948021,332.008789 102.643555,329.340393 112.567276,329.333649 
	C159.536255,329.301788 206.505280,329.313843 253.474274,329.313446 
	C296.279358,329.313080 339.084442,329.312500 381.889526,329.321716 
	C392.615448,329.324036 395.024567,332.761658 391.620850,342.882935 
	C387.115417,356.280151 382.707794,369.710266 378.227356,383.487030 
	C378.196533,383.847839 377.948517,384.026947 377.378174,384.027771 
	C306.369110,384.021545 235.930359,384.014404 165.491623,384.008606 
	C164.659119,384.008514 163.819717,383.959198 162.995239,384.045135 
	C157.436890,384.624664 153.092377,387.392151 151.156662,392.541382 
	C147.728775,401.660004 144.892624,411.000977 141.806732,420.248199 
	C136.419052,436.393005 130.998322,452.526855 125.650101,468.684753 
	C120.500328,484.243073 115.482666,499.845276 110.298813,515.392151 
	C105.996162,528.296326 101.492233,541.133301 97.157608,554.026917 
	C92.243050,568.645569 87.366821,583.277527 82.572639,597.935974 
	C79.641518,606.898071 76.896088,615.920959 74.067261,624.916504 
z"/>
<path fill="#FDFDFD" opacity="1.000000" stroke="none" 
	d="
M1149.998535,627.037476 
	C1099.046875,615.184021 1067.208984,583.786011 1055.083252,533.728577 
	C1039.670410,470.101074 1080.331421,404.875519 1143.931396,389.071594 
	C1210.038086,372.644836 1277.744141,415.672272 1291.008545,482.539612 
	C1301.827148,537.077454 1276.230469,590.901184 1227.041382,616.136719 
	C1202.873657,628.535522 1177.173096,631.901123 1149.998535,627.037476 
M1088.767456,526.654907 
	C1100.069214,578.851746 1160.846436,614.221313 1215.622803,582.721619 
	C1249.062744,563.491638 1264.480835,527.484680 1257.047974,488.906006 
	C1246.015625,431.644470 1177.980957,401.880920 1128.629883,432.725891 
	C1096.214111,452.986115 1081.315186,487.556305 1088.767456,526.654907 
z"/>
<path fill="#FEFEFE" opacity="1.000000" stroke="none" 
	d="
M1012.731323,581.263550 
	C1025.223999,596.159180 1037.494995,610.776672 1050.411621,626.163147 
	C1035.436646,626.163147 1021.369446,626.222290 1007.305054,626.053589 
	C1006.150696,626.039734 1004.786255,624.665771 1003.903931,623.604248 
	C976.550720,590.696594 949.221802,557.768677 922.004883,524.748413 
	C920.673584,523.133301 919.901184,520.699219 919.717468,518.573120 
	C919.362488,514.464417 919.613831,510.303253 919.613831,505.811920 
	C933.014343,505.811920 945.996460,505.961487 958.973511,505.769135 
	C971.531494,505.582947 983.124634,502.308319 991.794617,492.625061 
	C1003.171326,479.918671 1005.369934,465.031433 999.781799,449.306458 
	C994.454407,434.315247 983.125122,425.120789 967.415466,424.217590 
	C947.534607,423.074585 927.538086,423.941406 907.137329,423.941406 
	C907.137329,490.876709 907.137329,558.265015 907.137329,625.917236 
	C895.634399,625.917236 884.580322,625.917236 873.285034,625.917236 
	C873.285034,547.056702 873.285034,468.308228 873.285034,389.212158 
	C873.914001,389.099792 874.670105,388.845856 875.425964,388.846802 
	C905.083984,388.883850 934.746887,388.626221 964.398621,389.088470 
	C995.528748,389.573761 1020.975525,407.631866 1031.734985,435.975281 
	C1042.882812,465.341675 1035.851562,497.945587 1013.769958,518.710693 
	C1004.198730,527.711182 992.580200,532.842834 979.967468,535.959717 
	C978.691956,536.274963 977.433960,536.661255 975.687683,537.148499 
	C988.138977,551.971863 1000.324341,566.478638 1012.731323,581.263550 
z"/>
<path fill="#FDFDFD" opacity="1.000000" stroke="none" 
	d="
M700.190552,588.248047 
	C695.489807,599.998352 690.978210,611.410767 686.266296,622.739990 
	C685.695007,624.113586 684.064392,625.995728 682.889038,626.021545 
	C671.586731,626.269897 660.276672,626.170349 648.273438,626.170349 
	C651.337708,618.291565 654.165833,610.897705 657.082764,603.539124 
	C685.318054,532.309204 713.591675,461.094482 741.738953,389.829865 
	C743.020996,386.583893 744.500427,384.808624 748.111450,385.469055 
	C748.917297,385.616425 749.773743,385.470978 750.606201,385.490997 
	C756.569946,385.634491 763.860840,383.751343 768.111938,386.524994 
	C772.110474,389.133789 772.960754,396.635406 775.094727,402.024567 
	C804.160278,475.426575 833.208801,548.835388 862.254639,622.245178 
	C862.671326,623.298401 863.001831,624.385742 863.511475,625.858643 
	C851.268860,625.858643 839.390930,625.858643 827.151489,625.858643 
	C819.144653,606.256470 811.047668,586.471191 802.982300,566.673035 
	C798.709900,556.185364 798.734802,556.175110 787.316284,556.174866 
	C764.327393,556.174377 741.338074,556.241028 718.350037,556.100708 
	C714.932068,556.079834 713.106812,556.827698 711.783325,560.326660 
	C708.265076,569.627441 704.179260,578.713501 700.190552,588.248047 
M747.166016,465.713654 
	C740.342834,485.006561 733.519653,504.299438 726.651489,523.719421 
	C746.517944,523.719421 765.735413,523.719421 785.047974,523.719421 
	C784.979248,522.938965 785.035461,522.417786 784.879333,521.970886 
	C775.488892,495.092072 766.080994,468.219360 756.329224,440.358978 
	C753.175293,449.152069 750.333557,457.074860 747.166016,465.713654 
z"/>
<path fill="#FDFDFD" opacity="1.000000" stroke="none" 
	d="
M1496.192871,393.091431 
	C1496.190918,445.245087 1495.254517,496.931091 1496.482910,548.565552 
	C1497.456421,589.481201 1472.669800,613.556580 1440.119629,623.611877 
	C1407.653198,633.641296 1376.463013,629.561829 1348.471680,609.417969 
	C1330.638062,596.584106 1321.160522,578.653137 1321.068848,556.536865 
	C1320.841064,501.541199 1320.972656,446.543976 1320.964233,391.547394 
	C1320.964111,390.896912 1321.019043,390.246460 1321.061646,389.298889 
	C1332.391479,389.298889 1343.645630,389.298889 1355.596313,389.298889 
	C1355.596313,391.119019 1355.596313,393.045380 1355.596313,394.971741 
	C1355.595459,446.468842 1356.103394,497.973236 1355.367310,549.459839 
	C1355.027222,573.248413 1367.979736,583.947937 1382.716675,589.424316 
	C1402.894775,596.922546 1422.869751,596.232422 1441.997437,585.843811 
	C1455.249756,578.646301 1461.918579,567.468079 1461.872803,552.089417 
	C1461.717896,499.926147 1461.809082,447.762115 1461.806274,395.598389 
	C1461.806152,393.606934 1461.806396,391.615509 1461.806396,389.003052 
	C1472.715698,389.003052 1483.488037,388.938934 1494.254517,389.157166 
	C1494.923462,389.170715 1495.547485,391.402039 1496.192871,393.091431 
z"/>
<path fill="#FCFCFC" opacity="1.000000" stroke="none" 
	d="
M509.263580,488.999817 
	C509.263580,455.534363 509.263580,422.568909 509.263580,389.299683 
	C556.489990,389.299683 603.393188,389.299683 650.602661,389.299683 
	C650.602661,400.301392 650.602661,411.375275 650.602661,422.942139 
	C615.292114,422.942139 579.904297,422.942139 544.122925,422.942139 
	C544.122925,445.458130 544.122925,467.489655 544.122925,489.961670 
	C575.414673,489.961670 606.830017,489.961670 638.499878,489.961670 
	C638.499878,501.651794 638.499878,512.905823 638.499878,524.674133 
	C607.020203,524.674133 575.632263,524.674133 543.848145,524.674133 
	C543.848145,558.591614 543.848145,592.000122 543.848145,625.796875 
	C532.245239,625.796875 521.032776,625.796875 509.263580,625.796875 
	C509.263580,580.384644 509.263580,534.942261 509.263580,488.999817 
z"/>
<path fill="#FDFDFD" opacity="1.000000" stroke="none" 
	d="
M1667.259033,585.735413 
	C1678.441895,599.092590 1689.391113,612.183411 1701.094727,626.176270 
	C1690.135620,626.176270 1680.155151,625.353577 1670.374634,626.399780 
	C1659.884766,627.521912 1653.630371,623.437622 1647.225708,615.412781 
	C1622.002563,583.808655 1595.982178,552.840698 1570.244873,521.647217 
	C1564.244873,514.375244 1563.941406,501.532715 1569.697510,493.876495 
	C1595.185791,459.974518 1620.667725,426.067627 1646.256348,392.241577 
	C1647.375000,390.762695 1649.503906,389.171387 1651.191406,389.138580 
	C1664.331543,388.883148 1677.478760,388.997375 1691.727539,388.997375 
	C1661.315796,428.528656 1631.383545,467.436829 1601.148438,506.738678 
	C1623.088135,532.959045 1645.056763,559.214050 1667.259033,585.735413 
z"/>
<path fill="#FFFFFF" opacity="1.000000" stroke="none" 
	d="
M1525.521973,488.999695 
	C1525.521973,455.525085 1525.521973,422.550476 1525.521973,389.288452 
	C1536.759888,389.288452 1547.829102,389.288452 1559.112793,389.288452 
	C1559.112793,468.114807 1559.112793,546.828186 1559.112793,625.861267 
	C1548.082275,625.861267 1537.032715,625.861267 1525.521973,625.861267 
	C1525.521973,580.333923 1525.521973,534.916809 1525.521973,488.999695 
z"/>
<path fill="#F6F6F6" opacity="1.000000" stroke="none" 
	d="
M686.804199,686.870056 
	C685.693665,689.863647 684.710999,692.487915 683.814514,694.881958 
	C680.177979,696.025330 678.530151,694.883789 677.425354,691.410583 
	C672.815552,676.919556 667.880615,662.531921 663.064026,648.103882 
	C668.415527,646.362793 670.738037,648.168335 672.149780,653.283081 
	C674.700317,662.523254 678.080200,671.534546 681.387146,681.461975 
	C684.171448,673.699951 686.663757,666.752136 689.057617,660.078613 
	C693.447205,658.632935 695.331238,660.269043 696.442078,664.281738 
	C697.932678,669.666626 700.114014,674.860352 702.424072,681.326477 
	C705.824768,671.264343 709.143250,662.472534 711.701782,653.464966 
	C713.093384,648.565491 715.207764,646.314758 720.857727,648.077759 
	C718.028687,656.563965 715.183594,665.117126 712.325195,673.665833 
	C710.327637,679.640259 708.031250,685.533752 706.412415,691.608398 
	C705.485901,695.084839 703.729858,695.801270 700.160461,694.959167 
	C697.655457,688.266235 695.031311,681.255005 691.900208,672.889282 
	C689.927429,678.294128 688.429749,682.397461 686.804199,686.870056 
z"/>
<path fill="#F5F5F5" opacity="1.000000" stroke="none" 
	d="
M1135.776123,664.004517 
	C1135.777832,658.366821 1135.777832,653.227722 1135.777832,648.053467 
	C1139.475464,646.647095 1141.759521,647.618530 1143.775391,650.827698 
	C1147.824219,657.272888 1152.258667,663.475708 1156.543457,669.792603 
	C1164.810303,663.429382 1165.818359,650.499878 1177.831177,646.494873 
	C1177.831177,663.388855 1177.831177,678.951111 1177.831177,694.765991 
	C1175.738647,694.765991 1173.684082,694.765991 1171.251221,694.765991 
	C1171.251221,684.210754 1171.251221,673.810120 1171.251221,661.809814 
	C1167.142334,667.922607 1163.938110,672.808960 1160.606201,677.606567 
	C1158.115845,681.192444 1155.813354,681.191284 1153.332031,677.611328 
	C1150.053223,672.880920 1146.897827,668.064880 1142.985840,662.237549 
	C1142.985840,673.749939 1142.985840,684.080017 1142.985840,694.711182 
	C1140.437012,694.711182 1138.360107,694.711182 1135.774292,694.711182 
	C1135.774292,684.683472 1135.774292,674.593262 1135.776123,664.004517 
z"/>
<path fill="#F5F5F5" opacity="1.000000" stroke="none" 
	d="
M1232.581909,674.467651 
	C1229.829224,670.529663 1227.298584,666.876892 1224.199585,662.403931 
	C1224.199585,673.686707 1224.199585,684.037476 1224.199585,694.700439 
	C1221.749634,694.700439 1219.681152,694.700439 1217.309814,694.700439 
	C1217.309814,679.139709 1217.309814,663.417603 1217.309814,647.756653 
	C1220.910156,646.580505 1222.965088,648.021240 1224.870850,650.877197 
	C1231.207642,660.373596 1237.786133,669.708740 1245.016602,680.184448 
	C1245.016602,668.729614 1245.016602,658.538208 1245.016602,647.715393 
	C1247.486816,647.605957 1249.541992,647.514954 1251.957520,647.407898 
	C1251.957520,663.306702 1251.957520,678.895630 1251.957520,694.615112 
	C1248.323242,696.083313 1246.090454,694.445862 1244.062134,691.245544 
	C1240.500977,685.626587 1236.576294,680.237976 1232.581909,674.467651 
z"/>
<path fill="#F1F1F1" opacity="1.000000" stroke="none" 
	d="
M765.606079,650.526855 
	C766.456238,649.199036 767.281067,647.582397 768.158081,647.553467 
	C773.480225,647.378418 778.833801,647.301758 784.139832,647.693359 
	C792.122009,648.282471 797.147156,652.950256 798.155823,660.125427 
	C799.250977,667.915527 796.004272,673.453674 788.446411,676.679932 
	C787.990540,676.874512 787.521545,677.038452 786.535889,677.417908 
	C791.267639,683.125549 795.872070,688.679688 800.718201,694.525269 
	C795.391968,695.763367 791.395630,695.255005 788.150269,690.456177 
	C784.806091,685.511353 780.555481,681.187378 776.861328,676.466553 
	C775.773376,675.076233 775.228882,673.260559 774.043823,670.840088 
	C778.038025,670.840088 780.866211,671.048889 783.651917,670.794128 
	C788.571655,670.344299 791.372375,667.225952 791.337341,662.643677 
	C791.301880,658.005005 788.523926,655.137512 783.501953,654.745239 
	C781.180786,654.563904 778.839539,654.632874 776.507263,654.600586 
	C775.380432,654.585022 774.253235,654.597900 772.605347,654.597900 
	C772.605347,668.241638 772.605347,681.486755 772.605347,694.873718 
	C770.109192,694.873718 768.137207,694.873718 765.604919,694.873718 
	C765.604919,680.176697 765.604919,665.574280 765.606079,650.526855 
z"/>
<path fill="#F5F5F5" opacity="1.000000" stroke="none" 
	d="
M574.740967,648.040710 
	C586.444458,652.800598 592.443237,661.528442 591.963867,672.597351 
	C591.546021,682.245605 584.801819,691.100220 575.472229,694.249329 
	C565.542053,697.601196 555.136719,694.451233 548.747253,686.158875 
	C542.396423,677.916687 541.983704,666.328430 547.734741,657.734924 
	C553.632385,648.922302 564.105042,645.075500 574.740967,648.040710 
M550.751892,671.466553 
	C551.428223,680.178101 556.406921,686.450928 563.945435,688.089294 
	C573.656433,690.199890 582.837524,684.073364 584.711182,674.232422 
	C586.506348,664.803650 579.507385,655.303589 569.866882,654.083496 
	C560.063599,652.842834 551.841919,659.946838 550.751892,671.466553 
z"/>
<path fill="#F6F6F6" opacity="1.000000" stroke="none" 
	d="
M898.610474,661.564819 
	C904.310547,680.233948 894.561035,694.847046 876.684204,695.007263 
	C871.366394,695.054932 866.047852,695.014648 860.392456,695.014648 
	C860.392456,679.297852 860.392456,663.739441 860.392456,648.094666 
	C867.719604,648.094666 875.238586,647.384644 882.557190,648.291687 
	C890.068115,649.222717 895.439758,654.079773 898.610474,661.564819 
M888.911743,683.407227 
	C894.314026,677.211792 895.134827,670.173767 891.550598,663.062439 
	C886.358032,652.760193 876.518372,654.660217 867.289795,654.662781 
	C867.289795,665.802551 867.289795,676.822144 867.289795,688.024353 
	C874.744690,687.794678 882.253906,689.561462 888.911743,683.407227 
z"/>
<path fill="#F5F5F5" opacity="1.000000" stroke="none" 
	d="
M1069.002686,695.687012 
	C1051.554932,695.113953 1041.656494,678.563965 1045.847656,664.672485 
	C1049.415527,652.846985 1060.656372,645.370300 1072.529541,647.108276 
	C1084.118164,648.804504 1093.034668,659.175476 1093.143066,671.084473 
	C1093.254272,683.294983 1084.557495,693.430298 1072.388672,695.268555 
	C1071.402344,695.417480 1070.413208,695.547974 1069.002686,695.687012 
M1064.533203,654.691711 
	C1055.213135,657.880371 1050.132080,666.444519 1052.329956,675.260193 
	C1054.458252,683.795959 1062.494141,689.449524 1070.966064,688.371643 
	C1080.696777,687.133545 1087.151611,678.778992 1086.001831,668.910889 
	C1084.874634,659.237610 1076.072876,653.058899 1064.533203,654.691711 
z"/>
<path fill="#F2F2F2" opacity="1.000000" stroke="none" 
	d="
M979.456909,666.000671 
	C979.456909,659.709534 979.456909,653.918213 979.456909,647.843628 
	C989.247009,647.843628 998.640198,647.843628 1008.293640,647.843628 
	C1008.293640,649.954285 1008.293640,651.890625 1008.293640,654.413330 
	C1001.260437,654.413330 994.214783,654.413330 986.903015,654.413330 
	C986.903015,659.066895 986.903015,663.141235 986.903015,667.688049 
	C993.926758,667.688049 1000.820862,667.688049 1007.795288,667.688049 
	C1007.795288,670.259094 1007.795288,672.358582 1007.795288,674.799194 
	C1000.815308,674.799194 994.045410,674.799194 986.950684,674.799194 
	C986.950684,679.194092 986.950684,683.270508 986.950684,687.808472 
	C993.775269,687.808472 1000.848511,687.808472 1008.290527,687.808472 
	C1008.290527,690.305054 1008.290527,692.354065 1008.290527,694.725586 
	C998.921326,694.725586 989.506165,694.725586 979.456848,694.725586 
	C979.456848,685.361267 979.456848,675.930908 979.456909,666.000671 
z"/>
<path fill="#F4F4F4" opacity="1.000000" stroke="none" 
	d="
M823.806580,647.566162 
	C826.412964,647.567200 828.547607,647.567200 830.922729,647.567200 
	C830.922729,649.957825 830.922729,652.039307 830.922729,654.648621 
	C823.719055,654.648621 816.644348,654.648621 809.410889,654.648621 
	C809.410889,659.118896 809.410889,663.064331 809.410889,667.523926 
	C816.390198,667.523926 823.294800,667.523926 830.531982,667.523926 
	C830.531982,670.079712 830.531982,672.143188 830.531982,674.782104 
	C823.590515,674.782104 816.505920,674.782104 809.417114,674.782104 
	C809.417114,679.471436 809.417114,683.590393 809.417114,687.958252 
	C816.583740,687.958252 823.559204,687.958252 830.898254,687.958252 
	C830.898254,690.258850 830.898254,692.317627 830.898254,694.702576 
	C821.636047,694.702576 812.236633,694.702576 802.493530,694.702576 
	C802.493530,679.268250 802.493530,663.704895 802.493530,647.565186 
	C809.415588,647.565186 816.375183,647.565186 823.806580,647.566162 
z"/>
<path fill="#F4F4F4" opacity="1.000000" stroke="none" 
	d="
M1201.950073,654.591248 
	C1198.169312,654.591431 1194.882080,654.591431 1191.419434,654.591431 
	C1191.419434,659.121277 1191.419434,663.062805 1191.419434,667.522766 
	C1198.416626,667.522766 1205.317871,667.522766 1212.541992,667.522766 
	C1212.541992,670.084595 1212.541992,672.148438 1212.541992,674.802490 
	C1205.595825,674.802490 1198.519409,674.802490 1191.343018,674.802490 
	C1191.343018,679.369873 1191.343018,683.353210 1191.343018,687.769958 
	C1198.462402,687.769958 1205.524048,687.769958 1212.926758,687.769958 
	C1212.926758,690.267944 1212.926758,692.339844 1212.926758,694.719482 
	C1203.606567,694.719482 1194.208252,694.719482 1184.481934,694.719482 
	C1184.481934,679.273010 1184.481934,663.710632 1184.481934,647.856018 
	C1193.849609,647.856018 1203.263428,647.856018 1212.933838,647.856018 
	C1212.933838,649.973999 1212.933838,652.054688 1212.933838,654.591064 
	C1209.332153,654.591064 1205.887939,654.591064 1201.950073,654.591248 
z"/>
<path fill="#F4F4F4" opacity="1.000000" stroke="none" 
	d="
M534.885742,670.984802 
	C542.431641,677.418640 541.856689,686.877625 533.945862,692.123535 
	C526.944580,696.766296 516.710571,696.673096 510.670227,691.227295 
	C508.104431,688.914062 506.668335,685.347839 504.058624,681.336182 
	C507.894348,681.336182 509.843567,681.336182 511.851562,681.336182 
	C515.175842,689.115906 523.308960,690.031250 528.693909,686.861450 
	C530.731140,685.662292 532.755127,682.642273 532.784241,680.426025 
	C532.805664,678.793335 529.840088,676.421265 527.734680,675.627197 
	C524.693604,674.480408 521.220032,674.501770 517.942078,673.957886 
	C510.827972,672.777405 506.694977,669.009399 506.001953,663.138611 
	C505.217407,656.492676 508.692108,651.019714 515.407227,648.440125 
	C526.514221,644.173279 538.090454,650.029785 538.789124,659.365295 
	C535.666748,659.968201 533.088806,660.779907 530.516174,657.136597 
	C527.479309,652.835999 518.987122,652.637085 515.222473,656.511292 
	C513.842712,657.931213 512.920593,660.765503 513.309937,662.638611 
	C513.642456,664.238281 515.948730,666.041382 517.740173,666.594849 
	C521.362854,667.714111 525.254883,667.928162 528.983276,668.752869 
	C530.897583,669.176208 532.698853,670.110657 534.885742,670.984802 
z"/>
<path fill="#FAFAFA" opacity="1.000000" stroke="none" 
	d="
M932.974121,654.237549 
	C926.172852,654.237549 919.371521,654.237549 912.288147,654.237549 
	C912.288147,658.927368 912.288147,663.156494 912.288147,667.836182 
	C919.301453,667.836182 926.200623,667.836182 933.333740,667.836182 
	C933.333740,670.216187 933.333740,672.153442 933.333740,674.531250 
	C926.443176,674.531250 919.549988,674.531250 912.328125,674.531250 
	C912.328125,679.170532 912.328125,683.380249 912.328125,688.000977 
	C919.381897,688.000977 926.450989,688.000977 933.757446,688.000977 
	C933.757446,690.454224 933.757446,692.512817 933.757446,694.792969 
	C924.276794,694.792969 914.879883,694.792969 905.029358,694.792969 
	C905.029358,679.746094 905.029358,664.831177 905.298828,649.319153 
	C905.807007,648.496094 905.950989,648.220764 906.000427,647.895935 
	C914.687561,647.813293 923.374756,647.730652 932.617126,648.009888 
	C933.440918,648.578674 933.709534,648.785461 933.978088,648.992310 
	C933.970154,650.069763 933.962280,651.147217 933.709351,652.717285 
	C933.300903,653.552429 933.137512,653.895020 932.974121,654.237549 
z"/>
<path fill="#F3F3F3" opacity="1.000000" stroke="none" 
	d="
M1104.179932,647.441650 
	C1109.135620,647.563843 1113.659302,647.346924 1118.092407,647.880676 
	C1126.205322,648.857544 1131.255127,655.469971 1130.959839,664.100952 
	C1130.676025,672.390015 1125.187012,678.459839 1117.193604,679.002930 
	C1113.397461,679.260864 1109.569336,679.047180 1105.281494,679.047180 
	C1105.281494,684.442810 1105.281494,689.484436 1105.281494,694.765747 
	C1102.745850,694.765747 1100.677368,694.765747 1098.339966,694.765747 
	C1098.339966,679.158203 1098.339966,663.598877 1098.339966,647.441162 
	C1100.141724,647.441162 1101.924438,647.441162 1104.179932,647.441650 
M1105.100098,666.420532 
	C1105.100098,668.213318 1105.100098,670.006104 1105.100098,672.140015 
	C1109.285767,672.140015 1113.081421,672.378174 1116.834106,672.078369 
	C1121.305420,671.721252 1124.036621,668.210449 1124.037354,663.464661 
	C1124.038086,658.778564 1121.294678,655.211182 1116.851196,654.825317 
	C1113.102539,654.499756 1109.303223,654.758240 1105.099121,654.758240 
	C1105.099121,658.522705 1105.099121,661.984924 1105.100098,666.420532 
z"/>
<path fill="#F7F7F7" opacity="1.000000" stroke="none" 
	d="
M754.412109,671.497803 
	C757.573425,679.390320 760.541321,686.946594 763.629944,694.810303 
	C761.123840,694.810303 759.005249,694.810303 756.454651,694.810303 
	C755.811646,693.455627 755.061096,691.854553 754.293579,690.261658 
	C752.817566,687.198486 751.927673,682.152893 749.726257,681.492859 
	C745.140381,680.117737 739.851868,680.932922 734.869263,681.186035 
	C734.044556,681.227905 733.068848,682.874695 732.572388,683.966064 
	C730.930664,687.575073 729.476440,691.269409 727.967346,694.890015 
	C725.581970,694.890015 723.435608,694.890015 720.652161,694.890015 
	C722.948425,688.947266 725.093262,683.301880 727.308594,677.684326 
	C730.961975,668.420227 734.576050,659.138245 738.437622,649.960938 
	C738.982239,648.666687 740.821228,647.148804 742.075134,647.136230 
	C743.339050,647.123535 745.245056,648.591187 745.790405,649.870300 
	C748.782837,656.889343 751.443848,664.049744 754.412109,671.497803 
M738.048462,674.591919 
	C741.142273,674.591919 744.236145,674.591919 747.942505,674.591919 
	C746.056152,669.095947 744.357056,664.145569 742.657959,659.195190 
	C742.241882,659.161926 741.825806,659.128662 741.409729,659.095459 
	C740.015991,664.176392 738.622253,669.257324 738.048462,674.591919 
z"/>
<path fill="#F2F2F2" opacity="1.000000" stroke="none" 
	d="
M934.345093,649.061646 
	C933.709534,648.785461 933.440918,648.578674 933.068970,648.135498 
	C941.675964,647.262695 941.669250,647.265381 944.858276,655.311951 
	C948.316956,664.038940 951.789734,672.760437 955.758057,682.746887 
	C958.839661,675.152771 961.428162,668.769592 964.020386,662.387878 
	C965.269104,659.313721 966.931519,656.338501 967.685181,653.148010 
	C968.910278,647.962646 971.784912,646.413086 977.155273,648.098450 
	C973.394775,657.580994 969.637817,667.090576 965.851135,676.588257 
	C963.946472,681.365662 961.981812,686.119019 960.055176,690.887573 
	C958.265198,695.317749 958.271545,695.320312 953.054565,694.790649 
	C946.962341,679.625366 940.837280,664.378235 934.345093,649.061646 
z"/>
<path fill="#F6F6F6" opacity="1.000000" stroke="none" 
	d="
M625.874146,651.763062 
	C624.455872,652.703369 623.078796,654.372131 621.612122,654.454956 
	C615.969788,654.773438 610.298828,654.584106 604.305908,654.584106 
	C604.305908,658.927246 604.305908,663.163025 604.305908,667.752441 
	C610.400757,667.752441 616.509644,667.752441 622.769165,667.752441 
	C622.769165,670.199463 622.769165,672.300720 622.769165,674.850464 
	C616.502686,674.850464 610.423096,674.850464 603.987061,674.850464 
	C603.987061,681.710754 603.987061,688.135620 603.987061,694.781494 
	C601.557129,694.781494 599.493591,694.781494 597.217773,694.781494 
	C597.217773,679.226135 597.217773,663.786743 597.217773,648.276978 
	C606.692871,648.276978 616.204956,648.276978 625.851929,648.901917 
	C625.949219,650.272278 625.911682,651.017639 625.874146,651.763062 
z"/>
<path fill="#F7F7F7" opacity="1.000000" stroke="none" 
	d="
M626.008423,652.280884 
	C625.911682,651.017639 625.949219,650.272278 625.932861,649.320068 
	C626.737915,648.567871 627.592468,647.556274 628.456848,647.547791 
	C639.418701,647.440247 650.381897,647.477051 661.664490,647.477051 
	C661.664490,649.663879 661.664490,651.555786 661.664490,653.960693 
	C657.193420,653.960693 652.621094,653.960693 647.748047,653.960693 
	C647.748047,667.873657 647.748047,681.282959 647.748047,694.944458 
	C645.345642,694.944458 643.262817,694.944458 640.881348,694.944458 
	C640.881348,681.374329 640.881348,667.936035 640.881348,654.667969 
	C635.759888,654.018433 630.951355,653.408508 626.008423,652.280884 
z"/>
<path fill="#F3F3F3" opacity="1.000000" stroke="none" 
	d="
M1278.967285,647.440186 
	C1283.118652,647.440369 1286.777100,647.440369 1290.795776,647.440369 
	C1290.795776,649.550598 1290.795776,651.610718 1290.795776,653.989014 
	C1286.322021,653.989014 1281.886597,653.989014 1277.134277,653.989014 
	C1277.134277,667.691956 1277.134277,681.100891 1277.134277,694.862549 
	C1274.608887,694.862549 1272.401855,694.862549 1269.924072,694.862549 
	C1269.924072,681.322510 1269.924072,667.891907 1269.924072,654.011597 
	C1265.120361,654.011597 1260.554932,654.011597 1255.870605,654.011597 
	C1255.870605,651.643372 1255.870605,649.735046 1255.870605,647.439941 
	C1263.584473,647.439941 1271.029419,647.439941 1278.967285,647.440186 
z"/>
<path fill="#FAFAFA" opacity="1.000000" stroke="none" 
	d="
M1028.031250,688.065552 
	C1032.827515,688.065613 1037.131836,688.065613 1041.755615,688.065613 
	C1041.755615,690.347046 1041.755615,692.404297 1041.755615,694.744263 
	C1032.450195,694.744263 1023.033875,694.744263 1013.263550,694.744263 
	C1013.263550,679.325378 1013.263550,663.781372 1013.263550,647.917908 
	C1015.177551,647.917908 1017.242798,647.917908 1019.769653,647.917908 
	C1019.769653,661.182190 1019.769653,674.385376 1019.769653,688.065430 
	C1022.652161,688.065430 1025.095825,688.065430 1028.031250,688.065552 
z"/>
<path fill="#F2F2F2" opacity="1.000000" stroke="none" 
	d="
M933.216553,654.359619 
	C933.137512,653.895020 933.300903,653.552429 933.635132,653.114746 
	C933.690247,653.506897 933.574585,653.994263 933.216553,654.359619 
z"/>
<path fill="#F2F2F2" opacity="1.000000" stroke="none" 
	d="
M905.693359,647.871643 
	C905.950989,648.220764 905.807007,648.496094 905.372681,648.854858 
	C905.246826,648.607666 905.316589,648.227478 905.693359,647.871643 
z"/>
<path fill="#1CCBE8" opacity="1.000000" stroke="none" 
	d="
M74.527222,624.969727 
	C76.896088,615.920959 79.641518,606.898071 82.572639,597.935974 
	C87.366821,583.277527 92.243050,568.645569 97.157608,554.026917 
	C101.492233,541.133301 105.996162,528.296326 110.298813,515.392151 
	C115.482666,499.845276 120.500328,484.243073 125.650101,468.684753 
	C130.998322,452.526855 136.419052,436.393005 141.806732,420.248199 
	C144.892624,411.000977 147.728775,401.660004 151.156662,392.541382 
	C153.092377,387.392151 157.436890,384.624664 162.995239,384.045135 
	C163.819717,383.959198 164.659119,384.008514 165.491623,384.008606 
	C235.930359,384.014404 306.369110,384.021545 377.242920,384.099213 
	C358.991882,440.339813 340.313995,496.512573 321.615387,552.678467 
	C314.839569,573.031250 308.033936,593.374207 301.202423,613.708374 
	C298.255035,622.481445 294.626251,625.055237 285.408722,625.054382 
	C215.268204,625.047852 145.127701,625.034302 74.527222,624.969727 
z"/>
<path fill="#010101" opacity="1.000000" stroke="none" 
	d="
M1088.630371,526.255310 
	C1081.315186,487.556305 1096.214111,452.986115 1128.629883,432.725891 
	C1177.980957,401.880920 1246.015625,431.644470 1257.047974,488.906006 
	C1264.480835,527.484680 1249.062744,563.491638 1215.622803,582.721619 
	C1160.846436,614.221313 1100.069214,578.851746 1088.630371,526.255310 
z"/>
<path fill="#020202" opacity="1.000000" stroke="none" 
	d="
M747.328857,465.355652 
	C750.333557,457.074860 753.175293,449.152069 756.329224,440.358978 
	C766.080994,468.219360 775.488892,495.092072 784.879333,521.970886 
	C785.035461,522.417786 784.979248,522.938965 785.047974,523.719421 
	C765.735413,523.719421 746.517944,523.719421 726.651489,523.719421 
	C733.519653,504.299438 740.342834,485.006561 747.328857,465.355652 
z"/>
<path fill="#040404" opacity="1.000000" stroke="none" 
	d="
M550.753662,671.031738 
	C551.841919,659.946838 560.063599,652.842834 569.866882,654.083496 
	C579.507385,655.303589 586.506348,664.803650 584.711182,674.232422 
	C582.837524,684.073364 573.656433,690.199890 563.945435,688.089294 
	C556.406921,686.450928 551.428223,680.178101 550.753662,671.031738 
z"/>
<path fill="#020202" opacity="1.000000" stroke="none" 
	d="
M888.640015,683.665405 
	C882.253906,689.561462 874.744690,687.794678 867.289795,688.024353 
	C867.289795,676.822144 867.289795,665.802551 867.289795,654.662781 
	C876.518372,654.660217 886.358032,652.760193 891.550598,663.062439 
	C895.134827,670.173767 894.314026,677.211792 888.640015,683.665405 
z"/>
<path fill="#030303" opacity="1.000000" stroke="none" 
	d="
M1064.908569,654.529419 
	C1076.072876,653.058899 1084.874634,659.237610 1086.001831,668.910889 
	C1087.151611,678.778992 1080.696777,687.133545 1070.966064,688.371643 
	C1062.494141,689.449524 1054.458252,683.795959 1052.329956,675.260193 
	C1050.132080,666.444519 1055.213135,657.880371 1064.908569,654.529419 
z"/>
<path fill="#040404" opacity="1.000000" stroke="none" 
	d="
M1105.099609,665.933838 
	C1105.099121,661.984924 1105.099121,658.522705 1105.099121,654.758240 
	C1109.303223,654.758240 1113.102539,654.499756 1116.851196,654.825317 
	C1121.294678,655.211182 1124.038086,658.778564 1124.037354,663.464661 
	C1124.036621,668.210449 1121.305420,671.721252 1116.834106,672.078369 
	C1113.081421,672.378174 1109.285767,672.140015 1105.100098,672.140015 
	C1105.100098,670.006104 1105.100098,668.213318 1105.099609,665.933838 
z"/>
<path fill="#171717" opacity="1.000000" stroke="none" 
	d="
M737.638489,674.465088 
	C738.622253,669.257324 740.015991,664.176392 741.409729,659.095459 
	C741.825806,659.128662 742.241882,659.161926 742.657959,659.195190 
	C744.357056,664.145569 746.056152,669.095947 747.942505,674.591919 
	C744.236145,674.591919 741.142273,674.591919 737.638489,674.465088 
z"/>
</svg>